<mxfile host="Electron" modified="2024-04-24T17:41:40.383Z" agent="Mozilla/5.0 (X11; Linux x86_64) AppleWebKit/537.36 (KHTML, like Gecko) draw.io/23.1.5 Chrome/120.0.6099.109 Electron/28.1.0 Safari/537.36" etag="3NJsGAJA59OoHikZ2UT6" version="23.1.5" type="device">
  <diagram name="Page-1" id="2seMKqatkv6Hk6Yk6Unl">
    <mxGraphModel dx="694" dy="496" grid="1" gridSize="10" guides="1" tooltips="1" connect="1" arrows="1" fold="1" page="1" pageScale="1" pageWidth="850" pageHeight="1100" math="1" shadow="0">
      <root>
        <mxCell id="0" />
        <mxCell id="1" parent="0" />
        <mxCell id="xAzhXnt6HI_4G4j_pI5K-9" value="" style="shape=cube;whiteSpace=wrap;html=1;boundedLbl=1;backgroundOutline=1;darkOpacity=0.05;darkOpacity2=0.1;size=4;" vertex="1" parent="1">
          <mxGeometry x="153" y="426" width="37" height="14" as="geometry" />
        </mxCell>
        <mxCell id="xAzhXnt6HI_4G4j_pI5K-10" value="" style="shape=cube;whiteSpace=wrap;html=1;boundedLbl=1;backgroundOutline=1;darkOpacity=0.05;darkOpacity2=0.1;size=4;" vertex="1" parent="1">
          <mxGeometry x="153" y="410" width="17" height="20" as="geometry" />
        </mxCell>
        <mxCell id="xAzhXnt6HI_4G4j_pI5K-1" value="" style="shape=cylinder3;whiteSpace=wrap;html=1;boundedLbl=1;backgroundOutline=1;size=15;" vertex="1" parent="1">
          <mxGeometry x="170" y="400" width="140" height="40" as="geometry" />
        </mxCell>
        <mxCell id="xAzhXnt6HI_4G4j_pI5K-3" value="" style="endArrow=none;html=1;rounded=0;" edge="1" parent="1">
          <mxGeometry width="50" height="50" relative="1" as="geometry">
            <mxPoint x="240" y="370" as="sourcePoint" />
            <mxPoint x="240" y="415" as="targetPoint" />
          </mxGeometry>
        </mxCell>
        <mxCell id="xAzhXnt6HI_4G4j_pI5K-4" value="" style="endArrow=none;html=1;rounded=0;" edge="1" parent="1">
          <mxGeometry width="50" height="50" relative="1" as="geometry">
            <mxPoint x="239.85" y="440" as="sourcePoint" />
            <mxPoint x="240" y="480" as="targetPoint" />
          </mxGeometry>
        </mxCell>
        <mxCell id="xAzhXnt6HI_4G4j_pI5K-8" value="" style="shape=cube;whiteSpace=wrap;html=1;boundedLbl=1;backgroundOutline=1;darkOpacity=0.05;darkOpacity2=0.1;size=4;" vertex="1" parent="1">
          <mxGeometry x="153" y="410" width="37" height="11" as="geometry" />
        </mxCell>
        <mxCell id="xAzhXnt6HI_4G4j_pI5K-22" value="M" style="ellipse;whiteSpace=wrap;html=1;aspect=fixed;" vertex="1" parent="1">
          <mxGeometry x="282" y="463" width="20" height="20" as="geometry" />
        </mxCell>
        <mxCell id="xAzhXnt6HI_4G4j_pI5K-23" value="" style="verticalLabelPosition=bottom;verticalAlign=top;html=1;shape=mxgraph.basic.arc;startAngle=0.24522678332873485;endAngle=0.41424421288033253;" vertex="1" parent="1">
          <mxGeometry x="190" y="405" width="100" height="20" as="geometry" />
        </mxCell>
        <mxCell id="xAzhXnt6HI_4G4j_pI5K-27" value="" style="endArrow=none;dashed=1;html=1;rounded=0;" edge="1" parent="1">
          <mxGeometry width="50" height="50" relative="1" as="geometry">
            <mxPoint x="240" y="415" as="sourcePoint" />
            <mxPoint x="279" y="428" as="targetPoint" />
          </mxGeometry>
        </mxCell>
        <mxCell id="xAzhXnt6HI_4G4j_pI5K-28" value="" style="endArrow=none;dashed=1;html=1;rounded=0;" edge="1" parent="1">
          <mxGeometry width="50" height="50" relative="1" as="geometry">
            <mxPoint x="240" y="415" as="sourcePoint" />
            <mxPoint x="310" y="415" as="targetPoint" />
          </mxGeometry>
        </mxCell>
        <mxCell id="xAzhXnt6HI_4G4j_pI5K-29" value="$$\theta$$" style="text;html=1;align=center;verticalAlign=middle;whiteSpace=wrap;rounded=0;fillColor=default;" vertex="1" parent="1">
          <mxGeometry x="266" y="410.5" width="10" height="10" as="geometry" />
        </mxCell>
        <mxCell id="xAzhXnt6HI_4G4j_pI5K-30" value="Ressort" style="text;html=1;align=center;verticalAlign=middle;whiteSpace=wrap;rounded=0;fontSize=8;" vertex="1" parent="1">
          <mxGeometry x="200" y="485" width="80" height="16" as="geometry" />
        </mxCell>
        <mxCell id="xAzhXnt6HI_4G4j_pI5K-31" value="Moteur" style="text;html=1;align=center;verticalAlign=middle;whiteSpace=wrap;rounded=0;fontSize=8;" vertex="1" parent="1">
          <mxGeometry x="267" y="456" width="50" height="3" as="geometry" />
        </mxCell>
        <mxCell id="xAzhXnt6HI_4G4j_pI5K-32" value="Amortisseur magnÃ©tique" style="text;html=1;align=center;verticalAlign=middle;whiteSpace=wrap;rounded=0;fontSize=8;" vertex="1" parent="1">
          <mxGeometry x="140" y="380" width="88.5" height="10" as="geometry" />
        </mxCell>
        <mxCell id="xAzhXnt6HI_4G4j_pI5K-33" style="rounded=0;orthogonalLoop=1;jettySize=auto;html=1;entryX=0.483;entryY=0.021;entryDx=0;entryDy=0;entryPerimeter=0;endArrow=open;endFill=0;startSize=6;endSize=3;" edge="1" parent="1" source="xAzhXnt6HI_4G4j_pI5K-32" target="xAzhXnt6HI_4G4j_pI5K-8">
          <mxGeometry relative="1" as="geometry" />
        </mxCell>
        <mxCell id="xAzhXnt6HI_4G4j_pI5K-36" value="" style="shape=image;verticalLabelPosition=bottom;labelBackgroundColor=default;verticalAlign=top;imageAspect=0;image=https://cdn-icons-png.flaticon.com/512/9689/9689832.png;movable=1;resizable=1;rotatable=1;deletable=1;editable=1;locked=0;connectable=1;rotation=-180;" vertex="1" parent="1">
          <mxGeometry x="221.25" y="473.25" width="37.5" height="13.75" as="geometry" />
        </mxCell>
        <mxCell id="xAzhXnt6HI_4G4j_pI5K-37" value="" style="endArrow=none;html=1;rounded=0;strokeWidth=0.5;" edge="1" parent="1">
          <mxGeometry width="50" height="50" relative="1" as="geometry">
            <mxPoint x="292" y="483" as="sourcePoint" />
            <mxPoint x="258" y="483" as="targetPoint" />
          </mxGeometry>
        </mxCell>
      </root>
    </mxGraphModel>
  </diagram>
</mxfile>
